<mxfile host="app.diagrams.net" modified="2022-11-16T16:44:23.188Z" agent="5.0 (Windows NT 10.0; Win64; x64) AppleWebKit/537.36 (KHTML, like Gecko) Chrome/107.0.0.0 Safari/537.36" etag="j2p3fApolyPX3FzLizAu" version="20.4.2" type="github">
  <diagram id="GCmwQF0ZHjc94wH3zGRa" name="第 1 页">
    <mxGraphModel dx="1038" dy="547" grid="1" gridSize="10" guides="1" tooltips="1" connect="1" arrows="1" fold="1" page="1" pageScale="1" pageWidth="827" pageHeight="1169" math="0" shadow="0">
      <root>
        <mxCell id="0" />
        <mxCell id="1" parent="0" />
        <mxCell id="vtdf5gFNTcrSdO68gLjR-5" value="" style="rounded=1;whiteSpace=wrap;html=1;strokeWidth=2;fillWeight=4;hachureGap=8;hachureAngle=45;sketch=1;fontSize=24;fillColor=#f5f5f5;strokeColor=#666666;fontColor=#333333;" parent="1" vertex="1">
          <mxGeometry x="365" y="270" width="170" height="270" as="geometry" />
        </mxCell>
        <mxCell id="vtdf5gFNTcrSdO68gLjR-18" style="edgeStyle=orthogonalEdgeStyle;rounded=0;orthogonalLoop=1;jettySize=auto;html=1;fontSize=18;" parent="1" source="vtdf5gFNTcrSdO68gLjR-2" edge="1">
          <mxGeometry relative="1" as="geometry">
            <mxPoint x="360" y="415" as="targetPoint" />
          </mxGeometry>
        </mxCell>
        <mxCell id="vtdf5gFNTcrSdO68gLjR-2" value="&lt;font style=&quot;font-size: 24px;&quot;&gt;APP&lt;/font&gt;" style="rounded=1;whiteSpace=wrap;html=1;strokeWidth=2;fillWeight=4;hachureGap=8;hachureAngle=45;fillColor=#d5e8d4;sketch=1;strokeColor=#82b366;" parent="1" vertex="1">
          <mxGeometry x="210" y="390" width="70" height="50" as="geometry" />
        </mxCell>
        <mxCell id="vtdf5gFNTcrSdO68gLjR-20" value="" style="edgeStyle=orthogonalEdgeStyle;rounded=0;orthogonalLoop=1;jettySize=auto;html=1;fontSize=18;" parent="1" source="vtdf5gFNTcrSdO68gLjR-3" target="vtdf5gFNTcrSdO68gLjR-4" edge="1">
          <mxGeometry relative="1" as="geometry" />
        </mxCell>
        <mxCell id="vtdf5gFNTcrSdO68gLjR-21" style="edgeStyle=orthogonalEdgeStyle;rounded=0;orthogonalLoop=1;jettySize=auto;html=1;entryX=0;entryY=0.5;entryDx=0;entryDy=0;fontSize=18;" parent="1" source="vtdf5gFNTcrSdO68gLjR-3" target="vtdf5gFNTcrSdO68gLjR-12" edge="1">
          <mxGeometry relative="1" as="geometry" />
        </mxCell>
        <mxCell id="vtdf5gFNTcrSdO68gLjR-22" style="edgeStyle=orthogonalEdgeStyle;rounded=0;orthogonalLoop=1;jettySize=auto;html=1;entryX=0;entryY=0.5;entryDx=0;entryDy=0;fontSize=18;" parent="1" source="vtdf5gFNTcrSdO68gLjR-3" target="vtdf5gFNTcrSdO68gLjR-10" edge="1">
          <mxGeometry relative="1" as="geometry" />
        </mxCell>
        <mxCell id="vtdf5gFNTcrSdO68gLjR-3" value="一阶段" style="rounded=1;whiteSpace=wrap;html=1;strokeWidth=2;fillWeight=4;hachureGap=8;hachureAngle=45;fillColor=#e1d5e7;sketch=1;fontSize=24;strokeColor=#9673a6;" parent="1" vertex="1">
          <mxGeometry x="390" y="320" width="120" height="60" as="geometry" />
        </mxCell>
        <mxCell id="vtdf5gFNTcrSdO68gLjR-23" style="edgeStyle=orthogonalEdgeStyle;rounded=0;orthogonalLoop=1;jettySize=auto;html=1;entryX=0;entryY=0.5;entryDx=0;entryDy=0;fontSize=18;dashed=1;" parent="1" source="vtdf5gFNTcrSdO68gLjR-4" target="vtdf5gFNTcrSdO68gLjR-11" edge="1">
          <mxGeometry relative="1" as="geometry">
            <Array as="points">
              <mxPoint x="630" y="490" />
              <mxPoint x="630" y="510" />
            </Array>
          </mxGeometry>
        </mxCell>
        <mxCell id="vtdf5gFNTcrSdO68gLjR-24" style="edgeStyle=orthogonalEdgeStyle;rounded=0;orthogonalLoop=1;jettySize=auto;html=1;entryX=0;entryY=0.5;entryDx=0;entryDy=0;fontSize=18;dashed=1;" parent="1" source="vtdf5gFNTcrSdO68gLjR-4" target="vtdf5gFNTcrSdO68gLjR-9" edge="1">
          <mxGeometry relative="1" as="geometry">
            <Array as="points">
              <mxPoint x="630" y="490" />
              <mxPoint x="630" y="360" />
            </Array>
          </mxGeometry>
        </mxCell>
        <mxCell id="vtdf5gFNTcrSdO68gLjR-4" value="一阶段" style="rounded=1;whiteSpace=wrap;html=1;strokeWidth=2;fillWeight=4;hachureGap=8;hachureAngle=45;fillColor=#ffe6cc;sketch=1;fontSize=24;strokeColor=#d79b00;" parent="1" vertex="1">
          <mxGeometry x="390" y="460" width="120" height="60" as="geometry" />
        </mxCell>
        <mxCell id="vtdf5gFNTcrSdO68gLjR-9" value="框架托管" style="rounded=1;whiteSpace=wrap;html=1;strokeWidth=2;fillWeight=4;hachureGap=8;hachureAngle=45;fillColor=#ffe6cc;sketch=1;fontSize=24;strokeColor=#d79b00;" parent="1" vertex="1">
          <mxGeometry x="670" y="340" width="110" height="40" as="geometry" />
        </mxCell>
        <mxCell id="UPUnVLgtw8CV-BlYkD3--2" style="edgeStyle=orthogonalEdgeStyle;rounded=0;orthogonalLoop=1;jettySize=auto;html=1;entryX=0.5;entryY=0;entryDx=0;entryDy=0;dashed=1;fontSize=18;" edge="1" parent="1" source="vtdf5gFNTcrSdO68gLjR-10" target="vtdf5gFNTcrSdO68gLjR-9">
          <mxGeometry relative="1" as="geometry" />
        </mxCell>
        <mxCell id="vtdf5gFNTcrSdO68gLjR-10" value="用户SQL" style="rounded=1;whiteSpace=wrap;html=1;strokeWidth=2;fillWeight=4;hachureGap=8;hachureAngle=45;fillColor=#ffe6cc;sketch=1;fontSize=24;strokeColor=#d79b00;" parent="1" vertex="1">
          <mxGeometry x="670" y="270" width="110" height="40" as="geometry" />
        </mxCell>
        <mxCell id="vtdf5gFNTcrSdO68gLjR-11" value="框架托管" style="rounded=1;whiteSpace=wrap;html=1;strokeWidth=2;fillWeight=4;hachureGap=8;hachureAngle=45;fillColor=#1ba1e2;sketch=1;fontSize=24;" parent="1" vertex="1">
          <mxGeometry x="670" y="490" width="110" height="40" as="geometry" />
        </mxCell>
        <mxCell id="UPUnVLgtw8CV-BlYkD3--3" style="edgeStyle=orthogonalEdgeStyle;rounded=0;orthogonalLoop=1;jettySize=auto;html=1;entryX=0.5;entryY=0;entryDx=0;entryDy=0;dashed=1;fontSize=18;" edge="1" parent="1" source="vtdf5gFNTcrSdO68gLjR-12" target="vtdf5gFNTcrSdO68gLjR-11">
          <mxGeometry relative="1" as="geometry" />
        </mxCell>
        <mxCell id="vtdf5gFNTcrSdO68gLjR-12" value="用户SQL" style="rounded=1;whiteSpace=wrap;html=1;strokeWidth=2;fillWeight=4;hachureGap=8;hachureAngle=45;fillColor=#1ba1e2;sketch=1;fontSize=24;" parent="1" vertex="1">
          <mxGeometry x="670" y="420" width="110" height="40" as="geometry" />
        </mxCell>
        <mxCell id="vtdf5gFNTcrSdO68gLjR-13" value="&lt;font style=&quot;font-size: 18px;&quot;&gt;业务库&lt;/font&gt;" style="shape=cylinder3;whiteSpace=wrap;html=1;boundedLbl=1;backgroundOutline=1;size=15;fontSize=24;fillColor=#ffe6cc;strokeColor=#d79b00;" parent="1" vertex="1">
          <mxGeometry x="840" y="290" width="60" height="80" as="geometry" />
        </mxCell>
        <mxCell id="vtdf5gFNTcrSdO68gLjR-14" value="&lt;font style=&quot;font-size: 18px;&quot;&gt;业务库&lt;/font&gt;" style="shape=cylinder3;whiteSpace=wrap;html=1;boundedLbl=1;backgroundOutline=1;size=15;fontSize=24;fillColor=#0050ef;strokeColor=#001DBC;fontColor=#ffffff;" parent="1" vertex="1">
          <mxGeometry x="840" y="430" width="60" height="80" as="geometry" />
        </mxCell>
        <mxCell id="vtdf5gFNTcrSdO68gLjR-25" value="发起方" style="text;html=1;align=center;verticalAlign=middle;resizable=0;points=[];autosize=1;strokeColor=none;fillColor=none;fontSize=18;" parent="1" vertex="1">
          <mxGeometry x="410" y="270" width="80" height="40" as="geometry" />
        </mxCell>
        <mxCell id="vtdf5gFNTcrSdO68gLjR-26" value="1" style="text;html=1;align=center;verticalAlign=middle;resizable=0;points=[];autosize=1;strokeColor=none;fillColor=none;fontSize=18;" parent="1" vertex="1">
          <mxGeometry x="300" y="380" width="30" height="40" as="geometry" />
        </mxCell>
        <mxCell id="vtdf5gFNTcrSdO68gLjR-27" value="2" style="text;html=1;align=center;verticalAlign=middle;resizable=0;points=[];autosize=1;strokeColor=none;fillColor=none;fontSize=18;" parent="1" vertex="1">
          <mxGeometry x="550" y="310" width="30" height="40" as="geometry" />
        </mxCell>
        <mxCell id="vtdf5gFNTcrSdO68gLjR-28" value="3" style="text;html=1;align=center;verticalAlign=middle;resizable=0;points=[];autosize=1;strokeColor=none;fillColor=none;fontSize=18;" parent="1" vertex="1">
          <mxGeometry x="450" y="395" width="30" height="40" as="geometry" />
        </mxCell>
        <mxCell id="vtdf5gFNTcrSdO68gLjR-30" value="4" style="text;html=1;align=center;verticalAlign=middle;resizable=0;points=[];autosize=1;strokeColor=none;fillColor=none;fontSize=18;" parent="1" vertex="1">
          <mxGeometry x="550" y="450" width="30" height="40" as="geometry" />
        </mxCell>
      </root>
    </mxGraphModel>
  </diagram>
</mxfile>
